<?xml version="1.0" encoding="utf-8" standalone="no"?>
<!DOCTYPE svg PUBLIC "-//W3C//DTD SVG 1.1//EN"
  "http://www.w3.org/Graphics/SVG/1.1/DTD/svg11.dtd">
<svg xmlns:xlink="http://www.w3.org/1999/xlink" width="1080pt" height="288pt" viewBox="0 0 1080 288" xmlns="http://www.w3.org/2000/svg" version="1.1">
 <metadata>
  <rdf:RDF xmlns:dc="http://purl.org/dc/elements/1.1/" xmlns:cc="http://creativecommons.org/ns#" xmlns:rdf="http://www.w3.org/1999/02/22-rdf-syntax-ns#">
   <cc:Work>
    <dc:type rdf:resource="http://purl.org/dc/dcmitype/StillImage"/>
    <dc:date>2023-09-26T22:27:51.422647</dc:date>
    <dc:format>image/svg+xml</dc:format>
    <dc:creator>
     <cc:Agent>
      <dc:title>Matplotlib v3.7.2, https://matplotlib.org/</dc:title>
     </cc:Agent>
    </dc:creator>
   </cc:Work>
  </rdf:RDF>
 </metadata>
 <defs>
  <style type="text/css">*{stroke-linejoin: round; stroke-linecap: butt}</style>
 </defs>
 <g id="figure_1">
  <g id="patch_1">
   <path d="M 0 288 
L 1080 288 
L 1080 0 
L 0 0 
z
" style="fill: #f0f0f0"/>
  </g>
  <g id="axes_1">
   <g id="patch_2">
    <path d="M 34.63 255.69875 
L 1064.88 255.69875 
L 1064.88 43.92 
L 34.63 43.92 
z
" style="fill: #f0f0f0"/>
   </g>
   <g id="matplotlib.axis_1">
    <g id="xtick_1">
     <g id="text_1">
      <!-- sepal_length -->
      <g style="fill: #262626" transform="translate(132.221094 270.572344) scale(0.11 -0.11)">
       <defs>
        <path id="ArialMT-73" d="M 197 991 
L 753 1078 
Q 800 744 1014 566 
Q 1228 388 1613 388 
Q 2000 388 2187 545 
Q 2375 703 2375 916 
Q 2375 1106 2209 1216 
Q 2094 1291 1634 1406 
Q 1016 1563 777 1677 
Q 538 1791 414 1992 
Q 291 2194 291 2438 
Q 291 2659 392 2848 
Q 494 3038 669 3163 
Q 800 3259 1026 3326 
Q 1253 3394 1513 3394 
Q 1903 3394 2198 3281 
Q 2494 3169 2634 2976 
Q 2775 2784 2828 2463 
L 2278 2388 
Q 2241 2644 2061 2787 
Q 1881 2931 1553 2931 
Q 1166 2931 1000 2803 
Q 834 2675 834 2503 
Q 834 2394 903 2306 
Q 972 2216 1119 2156 
Q 1203 2125 1616 2013 
Q 2213 1853 2448 1751 
Q 2684 1650 2818 1456 
Q 2953 1263 2953 975 
Q 2953 694 2789 445 
Q 2625 197 2315 61 
Q 2006 -75 1616 -75 
Q 969 -75 630 194 
Q 291 463 197 991 
z
" transform="scale(0.015625)"/>
        <path id="ArialMT-65" d="M 2694 1069 
L 3275 997 
Q 3138 488 2766 206 
Q 2394 -75 1816 -75 
Q 1088 -75 661 373 
Q 234 822 234 1631 
Q 234 2469 665 2931 
Q 1097 3394 1784 3394 
Q 2450 3394 2872 2941 
Q 3294 2488 3294 1666 
Q 3294 1616 3291 1516 
L 816 1516 
Q 847 969 1125 678 
Q 1403 388 1819 388 
Q 2128 388 2347 550 
Q 2566 713 2694 1069 
z
M 847 1978 
L 2700 1978 
Q 2663 2397 2488 2606 
Q 2219 2931 1791 2931 
Q 1403 2931 1139 2672 
Q 875 2413 847 1978 
z
" transform="scale(0.015625)"/>
        <path id="ArialMT-70" d="M 422 -1272 
L 422 3319 
L 934 3319 
L 934 2888 
Q 1116 3141 1344 3267 
Q 1572 3394 1897 3394 
Q 2322 3394 2647 3175 
Q 2972 2956 3137 2557 
Q 3303 2159 3303 1684 
Q 3303 1175 3120 767 
Q 2938 359 2589 142 
Q 2241 -75 1856 -75 
Q 1575 -75 1351 44 
Q 1128 163 984 344 
L 984 -1272 
L 422 -1272 
z
M 931 1641 
Q 931 1000 1190 694 
Q 1450 388 1819 388 
Q 2194 388 2461 705 
Q 2728 1022 2728 1688 
Q 2728 2322 2467 2637 
Q 2206 2953 1844 2953 
Q 1484 2953 1207 2617 
Q 931 2281 931 1641 
z
" transform="scale(0.015625)"/>
        <path id="ArialMT-61" d="M 2588 409 
Q 2275 144 1986 34 
Q 1697 -75 1366 -75 
Q 819 -75 525 192 
Q 231 459 231 875 
Q 231 1119 342 1320 
Q 453 1522 633 1644 
Q 813 1766 1038 1828 
Q 1203 1872 1538 1913 
Q 2219 1994 2541 2106 
Q 2544 2222 2544 2253 
Q 2544 2597 2384 2738 
Q 2169 2928 1744 2928 
Q 1347 2928 1158 2789 
Q 969 2650 878 2297 
L 328 2372 
Q 403 2725 575 2942 
Q 747 3159 1072 3276 
Q 1397 3394 1825 3394 
Q 2250 3394 2515 3294 
Q 2781 3194 2906 3042 
Q 3031 2891 3081 2659 
Q 3109 2516 3109 2141 
L 3109 1391 
Q 3109 606 3145 398 
Q 3181 191 3288 0 
L 2700 0 
Q 2613 175 2588 409 
z
M 2541 1666 
Q 2234 1541 1622 1453 
Q 1275 1403 1131 1340 
Q 988 1278 909 1158 
Q 831 1038 831 891 
Q 831 666 1001 516 
Q 1172 366 1500 366 
Q 1825 366 2078 508 
Q 2331 650 2450 897 
Q 2541 1088 2541 1459 
L 2541 1666 
z
" transform="scale(0.015625)"/>
        <path id="ArialMT-6c" d="M 409 0 
L 409 4581 
L 972 4581 
L 972 0 
L 409 0 
z
" transform="scale(0.015625)"/>
        <path id="ArialMT-5f" d="M -97 -1272 
L -97 -866 
L 3631 -866 
L 3631 -1272 
L -97 -1272 
z
" transform="scale(0.015625)"/>
        <path id="ArialMT-6e" d="M 422 0 
L 422 3319 
L 928 3319 
L 928 2847 
Q 1294 3394 1984 3394 
Q 2284 3394 2536 3286 
Q 2788 3178 2913 3003 
Q 3038 2828 3088 2588 
Q 3119 2431 3119 2041 
L 3119 0 
L 2556 0 
L 2556 2019 
Q 2556 2363 2490 2533 
Q 2425 2703 2258 2804 
Q 2091 2906 1866 2906 
Q 1506 2906 1245 2678 
Q 984 2450 984 1813 
L 984 0 
L 422 0 
z
" transform="scale(0.015625)"/>
        <path id="ArialMT-67" d="M 319 -275 
L 866 -356 
Q 900 -609 1056 -725 
Q 1266 -881 1628 -881 
Q 2019 -881 2231 -725 
Q 2444 -569 2519 -288 
Q 2563 -116 2559 434 
Q 2191 0 1641 0 
Q 956 0 581 494 
Q 206 988 206 1678 
Q 206 2153 378 2554 
Q 550 2956 876 3175 
Q 1203 3394 1644 3394 
Q 2231 3394 2613 2919 
L 2613 3319 
L 3131 3319 
L 3131 450 
Q 3131 -325 2973 -648 
Q 2816 -972 2473 -1159 
Q 2131 -1347 1631 -1347 
Q 1038 -1347 672 -1080 
Q 306 -813 319 -275 
z
M 784 1719 
Q 784 1066 1043 766 
Q 1303 466 1694 466 
Q 2081 466 2343 764 
Q 2606 1063 2606 1700 
Q 2606 2309 2336 2618 
Q 2066 2928 1684 2928 
Q 1309 2928 1046 2623 
Q 784 2319 784 1719 
z
" transform="scale(0.015625)"/>
        <path id="ArialMT-74" d="M 1650 503 
L 1731 6 
Q 1494 -44 1306 -44 
Q 1000 -44 831 53 
Q 663 150 594 308 
Q 525 466 525 972 
L 525 2881 
L 113 2881 
L 113 3319 
L 525 3319 
L 525 4141 
L 1084 4478 
L 1084 3319 
L 1650 3319 
L 1650 2881 
L 1084 2881 
L 1084 941 
Q 1084 700 1114 631 
Q 1144 563 1211 522 
Q 1278 481 1403 481 
Q 1497 481 1650 503 
z
" transform="scale(0.015625)"/>
        <path id="ArialMT-68" d="M 422 0 
L 422 4581 
L 984 4581 
L 984 2938 
Q 1378 3394 1978 3394 
Q 2347 3394 2619 3248 
Q 2891 3103 3008 2847 
Q 3125 2591 3125 2103 
L 3125 0 
L 2563 0 
L 2563 2103 
Q 2563 2525 2380 2717 
Q 2197 2909 1863 2909 
Q 1613 2909 1392 2779 
Q 1172 2650 1078 2428 
Q 984 2206 984 1816 
L 984 0 
L 422 0 
z
" transform="scale(0.015625)"/>
       </defs>
       <use xlink:href="#ArialMT-73"/>
       <use xlink:href="#ArialMT-65" x="50"/>
       <use xlink:href="#ArialMT-70" x="105.615234"/>
       <use xlink:href="#ArialMT-61" x="161.230469"/>
       <use xlink:href="#ArialMT-6c" x="216.845703"/>
       <use xlink:href="#ArialMT-5f" x="239.0625"/>
       <use xlink:href="#ArialMT-6c" x="294.677734"/>
       <use xlink:href="#ArialMT-65" x="316.894531"/>
       <use xlink:href="#ArialMT-6e" x="372.509766"/>
       <use xlink:href="#ArialMT-67" x="428.125"/>
       <use xlink:href="#ArialMT-74" x="483.740234"/>
       <use xlink:href="#ArialMT-68" x="511.523438"/>
      </g>
     </g>
    </g>
    <g id="xtick_2">
     <g id="text_2">
      <!-- sepal_width -->
      <g style="fill: #262626" transform="translate(391.928594 270.572344) scale(0.11 -0.11)">
       <defs>
        <path id="ArialMT-77" d="M 1034 0 
L 19 3319 
L 600 3319 
L 1128 1403 
L 1325 691 
Q 1338 744 1497 1375 
L 2025 3319 
L 2603 3319 
L 3100 1394 
L 3266 759 
L 3456 1400 
L 4025 3319 
L 4572 3319 
L 3534 0 
L 2950 0 
L 2422 1988 
L 2294 2553 
L 1622 0 
L 1034 0 
z
" transform="scale(0.015625)"/>
        <path id="ArialMT-69" d="M 425 3934 
L 425 4581 
L 988 4581 
L 988 3934 
L 425 3934 
z
M 425 0 
L 425 3319 
L 988 3319 
L 988 0 
L 425 0 
z
" transform="scale(0.015625)"/>
        <path id="ArialMT-64" d="M 2575 0 
L 2575 419 
Q 2259 -75 1647 -75 
Q 1250 -75 917 144 
Q 584 363 401 755 
Q 219 1147 219 1656 
Q 219 2153 384 2558 
Q 550 2963 881 3178 
Q 1213 3394 1622 3394 
Q 1922 3394 2156 3267 
Q 2391 3141 2538 2938 
L 2538 4581 
L 3097 4581 
L 3097 0 
L 2575 0 
z
M 797 1656 
Q 797 1019 1065 703 
Q 1334 388 1700 388 
Q 2069 388 2326 689 
Q 2584 991 2584 1609 
Q 2584 2291 2321 2609 
Q 2059 2928 1675 2928 
Q 1300 2928 1048 2622 
Q 797 2316 797 1656 
z
" transform="scale(0.015625)"/>
       </defs>
       <use xlink:href="#ArialMT-73"/>
       <use xlink:href="#ArialMT-65" x="50"/>
       <use xlink:href="#ArialMT-70" x="105.615234"/>
       <use xlink:href="#ArialMT-61" x="161.230469"/>
       <use xlink:href="#ArialMT-6c" x="216.845703"/>
       <use xlink:href="#ArialMT-5f" x="239.0625"/>
       <use xlink:href="#ArialMT-77" x="294.677734"/>
       <use xlink:href="#ArialMT-69" x="366.894531"/>
       <use xlink:href="#ArialMT-64" x="389.111328"/>
       <use xlink:href="#ArialMT-74" x="444.726562"/>
       <use xlink:href="#ArialMT-68" x="472.509766"/>
      </g>
     </g>
    </g>
    <g id="xtick_3">
     <g id="text_3">
      <!-- petal_length -->
      <g style="fill: #262626" transform="translate(648.568125 270.572344) scale(0.11 -0.11)">
       <use xlink:href="#ArialMT-70"/>
       <use xlink:href="#ArialMT-65" x="55.615234"/>
       <use xlink:href="#ArialMT-74" x="111.230469"/>
       <use xlink:href="#ArialMT-61" x="139.013672"/>
       <use xlink:href="#ArialMT-6c" x="194.628906"/>
       <use xlink:href="#ArialMT-5f" x="216.845703"/>
       <use xlink:href="#ArialMT-6c" x="272.460938"/>
       <use xlink:href="#ArialMT-65" x="294.677734"/>
       <use xlink:href="#ArialMT-6e" x="350.292969"/>
       <use xlink:href="#ArialMT-67" x="405.908203"/>
       <use xlink:href="#ArialMT-74" x="461.523438"/>
       <use xlink:href="#ArialMT-68" x="489.306641"/>
      </g>
     </g>
    </g>
    <g id="xtick_4">
     <g id="text_4">
      <!-- petal_width -->
      <g style="fill: #262626" transform="translate(908.275625 270.572344) scale(0.11 -0.11)">
       <use xlink:href="#ArialMT-70"/>
       <use xlink:href="#ArialMT-65" x="55.615234"/>
       <use xlink:href="#ArialMT-74" x="111.230469"/>
       <use xlink:href="#ArialMT-61" x="139.013672"/>
       <use xlink:href="#ArialMT-6c" x="194.628906"/>
       <use xlink:href="#ArialMT-5f" x="216.845703"/>
       <use xlink:href="#ArialMT-77" x="272.460938"/>
       <use xlink:href="#ArialMT-69" x="344.677734"/>
       <use xlink:href="#ArialMT-64" x="366.894531"/>
       <use xlink:href="#ArialMT-74" x="422.509766"/>
       <use xlink:href="#ArialMT-68" x="450.292969"/>
      </g>
     </g>
    </g>
   </g>
   <g id="matplotlib.axis_2">
    <g id="ytick_1">
     <g id="line2d_1">
      <path d="M 34.63 241.655422 
L 1064.88 241.655422 
" clip-path="url(#p1ee64fc3ad)" style="fill: none; stroke: #cbcbcb"/>
     </g>
     <g id="text_5">
      <!-- −3 -->
      <g style="fill: #262626" transform="translate(15.088281 245.592218) scale(0.11 -0.11)">
       <defs>
        <path id="ArialMT-2212" d="M 3381 1997 
L 356 1997 
L 356 2522 
L 3381 2522 
L 3381 1997 
z
" transform="scale(0.015625)"/>
        <path id="ArialMT-33" d="M 269 1209 
L 831 1284 
Q 928 806 1161 595 
Q 1394 384 1728 384 
Q 2125 384 2398 659 
Q 2672 934 2672 1341 
Q 2672 1728 2419 1979 
Q 2166 2231 1775 2231 
Q 1616 2231 1378 2169 
L 1441 2663 
Q 1497 2656 1531 2656 
Q 1891 2656 2178 2843 
Q 2466 3031 2466 3422 
Q 2466 3731 2256 3934 
Q 2047 4138 1716 4138 
Q 1388 4138 1169 3931 
Q 950 3725 888 3313 
L 325 3413 
Q 428 3978 793 4289 
Q 1159 4600 1703 4600 
Q 2078 4600 2393 4439 
Q 2709 4278 2876 4000 
Q 3044 3722 3044 3409 
Q 3044 3113 2884 2869 
Q 2725 2625 2413 2481 
Q 2819 2388 3044 2092 
Q 3269 1797 3269 1353 
Q 3269 753 2831 336 
Q 2394 -81 1725 -81 
Q 1122 -81 723 278 
Q 325 638 269 1209 
z
" transform="scale(0.015625)"/>
       </defs>
       <use xlink:href="#ArialMT-2212"/>
       <use xlink:href="#ArialMT-33" x="58.398438"/>
      </g>
     </g>
    </g>
    <g id="ytick_2">
     <g id="line2d_2">
      <path d="M 34.63 214.05179 
L 1064.88 214.05179 
" clip-path="url(#p1ee64fc3ad)" style="fill: none; stroke: #cbcbcb"/>
     </g>
     <g id="text_6">
      <!-- −2 -->
      <g style="fill: #262626" transform="translate(15.088281 217.988587) scale(0.11 -0.11)">
       <defs>
        <path id="ArialMT-32" d="M 3222 541 
L 3222 0 
L 194 0 
Q 188 203 259 391 
Q 375 700 629 1000 
Q 884 1300 1366 1694 
Q 2113 2306 2375 2664 
Q 2638 3022 2638 3341 
Q 2638 3675 2398 3904 
Q 2159 4134 1775 4134 
Q 1369 4134 1125 3890 
Q 881 3647 878 3216 
L 300 3275 
Q 359 3922 746 4261 
Q 1134 4600 1788 4600 
Q 2447 4600 2831 4234 
Q 3216 3869 3216 3328 
Q 3216 3053 3103 2787 
Q 2991 2522 2730 2228 
Q 2469 1934 1863 1422 
Q 1356 997 1212 845 
Q 1069 694 975 541 
L 3222 541 
z
" transform="scale(0.015625)"/>
       </defs>
       <use xlink:href="#ArialMT-2212"/>
       <use xlink:href="#ArialMT-32" x="58.398438"/>
      </g>
     </g>
    </g>
    <g id="ytick_3">
     <g id="line2d_3">
      <path d="M 34.63 186.448158 
L 1064.88 186.448158 
" clip-path="url(#p1ee64fc3ad)" style="fill: none; stroke: #cbcbcb"/>
     </g>
     <g id="text_7">
      <!-- −1 -->
      <g style="fill: #262626" transform="translate(15.088281 190.384955) scale(0.11 -0.11)">
       <defs>
        <path id="ArialMT-31" d="M 2384 0 
L 1822 0 
L 1822 3584 
Q 1619 3391 1289 3197 
Q 959 3003 697 2906 
L 697 3450 
Q 1169 3672 1522 3987 
Q 1875 4303 2022 4600 
L 2384 4600 
L 2384 0 
z
" transform="scale(0.015625)"/>
       </defs>
       <use xlink:href="#ArialMT-2212"/>
       <use xlink:href="#ArialMT-31" x="58.398438"/>
      </g>
     </g>
    </g>
    <g id="ytick_4">
     <g id="line2d_4">
      <path d="M 34.63 158.844527 
L 1064.88 158.844527 
" clip-path="url(#p1ee64fc3ad)" style="fill: none; stroke: #cbcbcb"/>
     </g>
     <g id="text_8">
      <!-- 0 -->
      <g style="fill: #262626" transform="translate(21.512969 162.781324) scale(0.11 -0.11)">
       <defs>
        <path id="ArialMT-30" d="M 266 2259 
Q 266 3072 433 3567 
Q 600 4063 929 4331 
Q 1259 4600 1759 4600 
Q 2128 4600 2406 4451 
Q 2684 4303 2865 4023 
Q 3047 3744 3150 3342 
Q 3253 2941 3253 2259 
Q 3253 1453 3087 958 
Q 2922 463 2592 192 
Q 2263 -78 1759 -78 
Q 1097 -78 719 397 
Q 266 969 266 2259 
z
M 844 2259 
Q 844 1131 1108 757 
Q 1372 384 1759 384 
Q 2147 384 2411 759 
Q 2675 1134 2675 2259 
Q 2675 3391 2411 3762 
Q 2147 4134 1753 4134 
Q 1366 4134 1134 3806 
Q 844 3388 844 2259 
z
" transform="scale(0.015625)"/>
       </defs>
       <use xlink:href="#ArialMT-30"/>
      </g>
     </g>
    </g>
    <g id="ytick_5">
     <g id="line2d_5">
      <path d="M 34.63 131.240895 
L 1064.88 131.240895 
" clip-path="url(#p1ee64fc3ad)" style="fill: none; stroke: #cbcbcb"/>
     </g>
     <g id="text_9">
      <!-- 1 -->
      <g style="fill: #262626" transform="translate(21.512969 135.177692) scale(0.11 -0.11)">
       <use xlink:href="#ArialMT-31"/>
      </g>
     </g>
    </g>
    <g id="ytick_6">
     <g id="line2d_6">
      <path d="M 34.63 103.637264 
L 1064.88 103.637264 
" clip-path="url(#p1ee64fc3ad)" style="fill: none; stroke: #cbcbcb"/>
     </g>
     <g id="text_10">
      <!-- 2 -->
      <g style="fill: #262626" transform="translate(21.512969 107.574061) scale(0.11 -0.11)">
       <use xlink:href="#ArialMT-32"/>
      </g>
     </g>
    </g>
    <g id="ytick_7">
     <g id="line2d_7">
      <path d="M 34.63 76.033632 
L 1064.88 76.033632 
" clip-path="url(#p1ee64fc3ad)" style="fill: none; stroke: #cbcbcb"/>
     </g>
     <g id="text_11">
      <!-- 3 -->
      <g style="fill: #262626" transform="translate(21.512969 79.970429) scale(0.11 -0.11)">
       <use xlink:href="#ArialMT-33"/>
      </g>
     </g>
    </g>
    <g id="ytick_8">
     <g id="line2d_8">
      <path d="M 34.63 48.430001 
L 1064.88 48.430001 
" clip-path="url(#p1ee64fc3ad)" style="fill: none; stroke: #cbcbcb"/>
     </g>
     <g id="text_12">
      <!-- 4 -->
      <g style="fill: #262626" transform="translate(21.512969 52.366798) scale(0.11 -0.11)">
       <defs>
        <path id="ArialMT-34" d="M 2069 0 
L 2069 1097 
L 81 1097 
L 81 1613 
L 2172 4581 
L 2631 4581 
L 2631 1613 
L 3250 1613 
L 3250 1097 
L 2631 1097 
L 2631 0 
L 2069 0 
z
M 2069 1613 
L 2069 3678 
L 634 1613 
L 2069 1613 
z
" transform="scale(0.015625)"/>
       </defs>
       <use xlink:href="#ArialMT-34"/>
      </g>
     </g>
    </g>
   </g>
   <g id="PolyCollection_1">
    <defs>
     <path id="me41c22431d" d="M 164.390527 -57.441905 
L 162.431973 -57.441905 
L 161.995221 -59.063513 
L 161.406502 -60.68512 
L 160.630969 -62.306727 
L 159.63198 -63.928335 
L 158.372787 -65.549942 
L 156.818409 -67.17155 
L 154.937449 -68.793157 
L 152.703617 -70.414764 
L 150.096759 -72.036372 
L 147.103336 -73.657979 
L 143.716414 -75.279587 
L 139.935473 -76.901194 
L 135.76639 -78.522801 
L 131.222058 -80.144409 
L 126.323956 -81.766016 
L 121.104758 -83.387623 
L 115.611714 -85.009231 
L 109.910113 -86.630838 
L 104.085846 -88.252446 
L 98.245891 -89.874053 
L 92.515697 -91.49566 
L 87.032834 -93.117268 
L 81.936984 -94.738875 
L 77.357172 -96.360483 
L 73.397921 -97.98209 
L 70.126575 -99.603697 
L 67.564155 -101.225305 
L 65.681756 -102.846912 
L 64.403601 -104.46852 
L 63.616719 -106.090127 
L 63.1859 -107.711734 
L 62.971552 -109.333342 
L 62.847446 -110.954949 
L 62.715346 -112.576556 
L 62.514152 -114.198164 
L 62.222258 -115.819771 
L 61.853178 -117.441379 
L 61.445792 -119.062986 
L 61.05146 -120.684593 
L 60.720755 -122.306201 
L 60.492385 -123.927808 
L 60.38625 -125.549416 
L 60.401623 -127.171023 
L 60.520334 -128.79263 
L 60.713875 -130.414238 
L 60.952653 -132.035845 
L 61.215347 -133.657453 
L 61.49647 -135.27906 
L 61.810722 -136.900667 
L 62.193467 -138.522275 
L 62.697456 -140.143882 
L 63.386606 -141.76549 
L 64.328152 -143.387097 
L 65.584603 -145.008704 
L 67.206813 -146.630312 
L 69.229096 -148.251919 
L 71.666734 -149.873526 
L 74.515764 -151.495134 
L 77.754501 -153.116741 
L 81.34608 -154.738349 
L 85.241341 -156.359956 
L 89.381586 -157.981563 
L 93.701012 -159.603171 
L 98.128891 -161.224778 
L 102.591696 -162.846386 
L 107.015401 -164.467993 
L 111.328069 -166.0896 
L 115.462674 -167.711208 
L 119.35999 -169.332815 
L 122.971263 -170.954423 
L 126.260438 -172.57603 
L 129.205745 -174.197637 
L 131.800585 -175.819245 
L 134.053679 -177.440852 
L 135.988499 -179.062459 
L 137.641942 -180.684067 
L 139.062186 -182.305674 
L 140.30568 -183.927282 
L 141.433271 -185.548889 
L 142.505642 -187.170496 
L 143.578407 -188.792104 
L 144.6974 -190.413711 
L 145.894774 -192.035319 
L 147.186491 -193.656926 
L 148.571625 -195.278533 
L 150.033614 -196.900141 
L 151.543258 -198.521748 
L 153.063017 -200.143356 
L 154.551911 -201.764963 
L 155.970325 -203.38657 
L 157.284064 -205.008178 
L 158.467217 -206.629785 
L 159.503626 -208.251392 
L 160.387007 -209.873 
L 161.119948 -211.494607 
L 161.712146 -213.116215 
L 162.178275 -214.737822 
L 162.535823 -216.359429 
L 162.803174 -217.981037 
L 164.019326 -217.981037 
L 164.019326 -217.981037 
L 164.286677 -216.359429 
L 164.644225 -214.737822 
L 165.110354 -213.116215 
L 165.702552 -211.494607 
L 166.435493 -209.873 
L 167.318874 -208.251392 
L 168.355283 -206.629785 
L 169.538436 -205.008178 
L 170.852175 -203.38657 
L 172.270589 -201.764963 
L 173.759483 -200.143356 
L 175.279242 -198.521748 
L 176.788886 -196.900141 
L 178.250875 -195.278533 
L 179.636009 -193.656926 
L 180.927726 -192.035319 
L 182.1251 -190.413711 
L 183.244093 -188.792104 
L 184.316858 -187.170496 
L 185.389229 -185.548889 
L 186.51682 -183.927282 
L 187.760314 -182.305674 
L 189.180558 -180.684067 
L 190.834001 -179.062459 
L 192.768821 -177.440852 
L 195.021915 -175.819245 
L 197.616755 -174.197637 
L 200.562062 -172.57603 
L 203.851237 -170.954423 
L 207.46251 -169.332815 
L 211.359826 -167.711208 
L 215.494431 -166.0896 
L 219.807099 -164.467993 
L 224.230804 -162.846386 
L 228.693609 -161.224778 
L 233.121488 -159.603171 
L 237.440914 -157.981563 
L 241.581159 -156.359956 
L 245.47642 -154.738349 
L 249.067999 -153.116741 
L 252.306736 -151.495134 
L 255.155766 -149.873526 
L 257.593404 -148.251919 
L 259.615687 -146.630312 
L 261.237897 -145.008704 
L 262.494348 -143.387097 
L 263.435894 -141.76549 
L 264.125044 -140.143882 
L 264.629033 -138.522275 
L 265.011778 -136.900667 
L 265.32603 -135.27906 
L 265.607153 -133.657453 
L 265.869847 -132.035845 
L 266.108625 -130.414238 
L 266.302166 -128.79263 
L 266.420877 -127.171023 
L 266.43625 -125.549416 
L 266.330115 -123.927808 
L 266.101745 -122.306201 
L 265.77104 -120.684593 
L 265.376708 -119.062986 
L 264.969322 -117.441379 
L 264.600242 -115.819771 
L 264.308348 -114.198164 
L 264.107154 -112.576556 
L 263.975054 -110.954949 
L 263.850948 -109.333342 
L 263.6366 -107.711734 
L 263.205781 -106.090127 
L 262.418899 -104.46852 
L 261.140744 -102.846912 
L 259.258345 -101.225305 
L 256.695925 -99.603697 
L 253.424579 -97.98209 
L 249.465328 -96.360483 
L 244.885516 -94.738875 
L 239.789666 -93.117268 
L 234.306803 -91.49566 
L 228.576609 -89.874053 
L 222.736654 -88.252446 
L 216.912387 -86.630838 
L 211.210786 -85.009231 
L 205.717742 -83.387623 
L 200.498544 -81.766016 
L 195.600442 -80.144409 
L 191.05611 -78.522801 
L 186.887027 -76.901194 
L 183.106086 -75.279587 
L 179.719164 -73.657979 
L 176.725741 -72.036372 
L 174.118883 -70.414764 
L 171.885051 -68.793157 
L 170.004091 -67.17155 
L 168.449713 -65.549942 
L 167.19052 -63.928335 
L 166.191531 -62.306727 
L 165.415998 -60.68512 
L 164.827279 -59.063513 
L 164.390527 -57.441905 
z
" style="stroke: #484848; stroke-width: 3"/>
    </defs>
    <g clip-path="url(#p1ee64fc3ad)">
     <use xlink:href="#me41c22431d" x="0" y="288" style="fill: #cb3335; stroke: #484848; stroke-width: 3"/>
    </g>
   </g>
   <g id="PolyCollection_2">
    <defs>
     <path id="maccf0872a8" d="M 421.240419 -41.927557 
L 420.707081 -41.927557 
L 420.576446 -43.872265 
L 420.398282 -45.816974 
L 420.161858 -47.761682 
L 419.855635 -49.706391 
L 419.467178 -51.651099 
L 418.982913 -53.595808 
L 418.387881 -55.540516 
L 417.665744 -57.485224 
L 416.799345 -59.429933 
L 415.772059 -61.374641 
L 414.569881 -63.31935 
L 413.18394 -65.264058 
L 411.612791 -67.208767 
L 409.863727 -69.153475 
L 407.952522 -71.098184 
L 405.90142 -73.042892 
L 403.73571 -74.9876 
L 401.479726 -76.932309 
L 399.153245 -78.877017 
L 396.769087 -80.821726 
L 394.332193 -82.766434 
L 391.839892 -84.711143 
L 389.282673 -86.655851 
L 386.644788 -88.60056 
L 383.904392 -90.545268 
L 381.033527 -92.489976 
L 377.998679 -94.434685 
L 374.762723 -96.379393 
L 371.288689 -98.324102 
L 367.545131 -100.26881 
L 363.512297 -102.213519 
L 359.188112 -104.158227 
L 354.593221 -106.102936 
L 349.77488 -108.047644 
L 344.809881 -109.992353 
L 339.806613 -111.937061 
L 334.905754 -113.881769 
L 330.278158 -115.826478 
L 326.118002 -117.771186 
L 322.629575 -119.715895 
L 320.007563 -121.660603 
L 318.412943 -123.605312 
L 317.94875 -125.55002 
L 318.641221 -127.494729 
L 320.431358 -129.439437 
L 323.179841 -131.384145 
L 326.685128 -133.328854 
L 330.711373 -135.273562 
L 335.020623 -137.218271 
L 339.402977 -139.162979 
L 343.699252 -141.107688 
L 347.812578 -143.052396 
L 351.707848 -144.997105 
L 355.400353 -146.941813 
L 358.93687 -148.886521 
L 362.37371 -150.83123 
L 365.756481 -152.775938 
L 369.105707 -154.720647 
L 372.410933 -156.665355 
L 375.633925 -158.610064 
L 378.719462 -160.554772 
L 381.610514 -162.499481 
L 384.263726 -164.444189 
L 386.661293 -166.388897 
L 388.816393 -168.333606 
L 390.771097 -170.278314 
L 392.587549 -172.223023 
L 394.334837 -174.167731 
L 396.074837 -176.11244 
L 397.850394 -178.057148 
L 399.678364 -180.001857 
L 401.548695 -181.946565 
L 403.429158 -183.891274 
L 405.274019 -185.835982 
L 407.034244 -187.78069 
L 408.666767 -189.725399 
L 410.140981 -191.670107 
L 411.441609 -193.614816 
L 412.56814 -195.559524 
L 413.531783 -197.504233 
L 414.351306 -199.448941 
L 415.048978 -201.39365 
L 415.647467 -203.338358 
L 416.167965 -205.283066 
L 416.629364 -207.227775 
L 417.048008 -209.172483 
L 417.437572 -211.117192 
L 417.808769 -213.0619 
L 418.1689 -215.006609 
L 418.521446 -216.951317 
L 418.866001 -218.896026 
L 419.198758 -220.840734 
L 419.513566 -222.785442 
L 419.803371 -224.730151 
L 420.06173 -226.674859 
L 420.284053 -228.619568 
L 420.468328 -230.564276 
L 420.615253 -232.508985 
L 420.727854 -234.453693 
L 421.219646 -234.453693 
L 421.219646 -234.453693 
L 421.332247 -232.508985 
L 421.479172 -230.564276 
L 421.663447 -228.619568 
L 421.88577 -226.674859 
L 422.144129 -224.730151 
L 422.433934 -222.785442 
L 422.748742 -220.840734 
L 423.081499 -218.896026 
L 423.426054 -216.951317 
L 423.7786 -215.006609 
L 424.138731 -213.0619 
L 424.509928 -211.117192 
L 424.899492 -209.172483 
L 425.318136 -207.227775 
L 425.779535 -205.283066 
L 426.300033 -203.338358 
L 426.898522 -201.39365 
L 427.596194 -199.448941 
L 428.415717 -197.504233 
L 429.37936 -195.559524 
L 430.505891 -193.614816 
L 431.806519 -191.670107 
L 433.280733 -189.725399 
L 434.913256 -187.78069 
L 436.673481 -185.835982 
L 438.518342 -183.891274 
L 440.398805 -181.946565 
L 442.269136 -180.001857 
L 444.097106 -178.057148 
L 445.872663 -176.11244 
L 447.612663 -174.167731 
L 449.359951 -172.223023 
L 451.176403 -170.278314 
L 453.131107 -168.333606 
L 455.286207 -166.388897 
L 457.683774 -164.444189 
L 460.336986 -162.499481 
L 463.228038 -160.554772 
L 466.313575 -158.610064 
L 469.536567 -156.665355 
L 472.841793 -154.720647 
L 476.191019 -152.775938 
L 479.57379 -150.83123 
L 483.01063 -148.886521 
L 486.547147 -146.941813 
L 490.239652 -144.997105 
L 494.134922 -143.052396 
L 498.248248 -141.107688 
L 502.544523 -139.162979 
L 506.926877 -137.218271 
L 511.236127 -135.273562 
L 515.262372 -133.328854 
L 518.767659 -131.384145 
L 521.516142 -129.439437 
L 523.306279 -127.494729 
L 523.99875 -125.55002 
L 523.534557 -123.605312 
L 521.939937 -121.660603 
L 519.317925 -119.715895 
L 515.829498 -117.771186 
L 511.669342 -115.826478 
L 507.041746 -113.881769 
L 502.140887 -111.937061 
L 497.137619 -109.992353 
L 492.17262 -108.047644 
L 487.354279 -106.102936 
L 482.759388 -104.158227 
L 478.435203 -102.213519 
L 474.402369 -100.26881 
L 470.658811 -98.324102 
L 467.184777 -96.379393 
L 463.948821 -94.434685 
L 460.913973 -92.489976 
L 458.043108 -90.545268 
L 455.302712 -88.60056 
L 452.664827 -86.655851 
L 450.107608 -84.711143 
L 447.615307 -82.766434 
L 445.178413 -80.821726 
L 442.794255 -78.877017 
L 440.467774 -76.932309 
L 438.21179 -74.9876 
L 436.04608 -73.042892 
L 433.994978 -71.098184 
L 432.083773 -69.153475 
L 430.334709 -67.208767 
L 428.76356 -65.264058 
L 427.377619 -63.31935 
L 426.175441 -61.374641 
L 425.148155 -59.429933 
L 424.281756 -57.485224 
L 423.559619 -55.540516 
L 422.964587 -53.595808 
L 422.480322 -51.651099 
L 422.091865 -49.706391 
L 421.785642 -47.761682 
L 421.549218 -45.816974 
L 421.371054 -43.872265 
L 421.240419 -41.927557 
z
" style="stroke: #484848; stroke-width: 3"/>
    </defs>
    <g clip-path="url(#p1ee64fc3ad)">
     <use xlink:href="#maccf0872a8" x="0" y="288" style="fill: #477ca8; stroke: #484848; stroke-width: 3"/>
    </g>
   </g>
   <g id="PolyCollection_3">
    <defs>
     <path id="m5550dfe88c" d="M 681.155524 -65.76269 
L 675.916976 -65.76269 
L 674.903091 -67.104004 
L 673.578163 -68.445319 
L 671.879459 -69.786633 
L 669.743355 -71.127947 
L 667.109835 -72.469261 
L 663.928118 -73.810575 
L 660.163186 -75.151889 
L 655.802733 -76.493203 
L 650.863885 -77.834518 
L 645.398924 -79.175832 
L 639.499127 -80.517146 
L 633.295925 -81.85846 
L 626.958708 -83.199774 
L 620.688913 -84.541088 
L 614.710431 -85.882402 
L 609.256779 -87.223717 
L 604.555986 -88.565031 
L 600.814458 -89.906345 
L 598.20139 -91.247659 
L 596.835274 -92.588973 
L 596.773967 -93.930287 
L 598.009391 -95.271601 
L 600.467437 -96.612916 
L 604.013093 -97.95423 
L 608.460185 -99.295544 
L 613.58467 -100.636858 
L 619.140047 -101.978172 
L 624.873316 -103.319486 
L 630.539988 -104.6608 
L 635.91686 -106.002115 
L 640.811684 -107.343429 
L 645.069277 -108.684743 
L 648.574065 -110.026057 
L 651.249454 -111.367371 
L 653.054682 -112.708685 
L 653.979976 -114.049999 
L 654.040856 -115.391314 
L 653.272371 -116.732628 
L 651.723851 -118.073942 
L 649.454608 -119.415256 
L 646.530777 -120.75657 
L 643.02329 -122.097884 
L 639.006841 -123.439198 
L 634.559578 -124.780513 
L 629.763214 -126.121827 
L 624.70324 -127.463141 
L 619.468965 -128.804455 
L 614.153173 -130.145769 
L 608.851263 -131.487083 
L 603.659833 -132.828398 
L 598.67476 -134.169712 
L 593.988874 -135.511026 
L 589.689403 -136.85234 
L 585.855394 -138.193654 
L 582.555302 -139.534968 
L 579.844962 -140.876282 
L 577.766096 -142.217597 
L 576.345479 -143.558911 
L 575.594803 -144.900225 
L 575.51125 -146.241539 
L 576.078664 -147.582853 
L 577.269218 -148.924167 
L 579.045379 -150.265481 
L 581.361998 -151.606796 
L 584.168341 -152.94811 
L 587.40991 -154.289424 
L 591.029967 -155.630738 
L 594.970715 -156.972052 
L 599.174181 -158.313366 
L 603.582844 -159.65468 
L 608.14014 -160.995995 
L 612.790926 -162.337309 
L 617.481991 -163.678623 
L 622.162664 -165.019937 
L 626.785516 -166.361251 
L 631.307116 -167.702565 
L 635.688747 -169.043879 
L 639.89703 -170.385194 
L 643.904337 -171.726508 
L 647.688964 -173.067822 
L 651.235038 -174.409136 
L 654.532176 -175.75045 
L 657.574955 -177.091764 
L 660.362266 -178.433078 
L 662.896634 -179.774393 
L 665.183573 -181.115707 
L 667.231027 -182.457021 
L 669.048915 -183.798335 
L 670.648788 -185.139649 
L 672.043559 -186.480963 
L 673.247287 -187.822277 
L 674.274964 -189.163592 
L 675.142287 -190.504906 
L 675.86539 -191.84622 
L 676.460545 -193.187534 
L 676.943835 -194.528848 
L 677.330816 -195.870162 
L 677.636209 -197.211477 
L 677.873634 -198.552791 
L 679.198866 -198.552791 
L 679.198866 -198.552791 
L 679.436291 -197.211477 
L 679.741684 -195.870162 
L 680.128665 -194.528848 
L 680.611955 -193.187534 
L 681.20711 -191.84622 
L 681.930213 -190.504906 
L 682.797536 -189.163592 
L 683.825213 -187.822277 
L 685.028941 -186.480963 
L 686.423712 -185.139649 
L 688.023585 -183.798335 
L 689.841473 -182.457021 
L 691.888927 -181.115707 
L 694.175866 -179.774393 
L 696.710234 -178.433078 
L 699.497545 -177.091764 
L 702.540324 -175.75045 
L 705.837462 -174.409136 
L 709.383536 -173.067822 
L 713.168163 -171.726508 
L 717.17547 -170.385194 
L 721.383753 -169.043879 
L 725.765384 -167.702565 
L 730.286984 -166.361251 
L 734.909836 -165.019937 
L 739.590509 -163.678623 
L 744.281574 -162.337309 
L 748.93236 -160.995995 
L 753.489656 -159.65468 
L 757.898319 -158.313366 
L 762.101785 -156.972052 
L 766.042533 -155.630738 
L 769.66259 -154.289424 
L 772.904159 -152.94811 
L 775.710502 -151.606796 
L 778.027121 -150.265481 
L 779.803282 -148.924167 
L 780.993836 -147.582853 
L 781.56125 -146.241539 
L 781.477697 -144.900225 
L 780.727021 -143.558911 
L 779.306404 -142.217597 
L 777.227538 -140.876282 
L 774.517198 -139.534968 
L 771.217106 -138.193654 
L 767.383097 -136.85234 
L 763.083626 -135.511026 
L 758.39774 -134.169712 
L 753.412667 -132.828398 
L 748.221237 -131.487083 
L 742.919327 -130.145769 
L 737.603535 -128.804455 
L 732.36926 -127.463141 
L 727.309286 -126.121827 
L 722.512922 -124.780513 
L 718.065659 -123.439198 
L 714.04921 -122.097884 
L 710.541723 -120.75657 
L 707.617892 -119.415256 
L 705.348649 -118.073942 
L 703.800129 -116.732628 
L 703.031644 -115.391314 
L 703.092524 -114.049999 
L 704.017818 -112.708685 
L 705.823046 -111.367371 
L 708.498435 -110.026057 
L 712.003223 -108.684743 
L 716.260816 -107.343429 
L 721.15564 -106.002115 
L 726.532512 -104.6608 
L 732.199184 -103.319486 
L 737.932453 -101.978172 
L 743.48783 -100.636858 
L 748.612315 -99.295544 
L 753.059407 -97.95423 
L 756.605063 -96.612916 
L 759.063109 -95.271601 
L 760.298533 -93.930287 
L 760.237226 -92.588973 
L 758.87111 -91.247659 
L 756.258042 -89.906345 
L 752.516514 -88.565031 
L 747.815721 -87.223717 
L 742.362069 -85.882402 
L 736.383587 -84.541088 
L 730.113792 -83.199774 
L 723.776575 -81.85846 
L 717.573373 -80.517146 
L 711.673576 -79.175832 
L 706.208615 -77.834518 
L 701.269767 -76.493203 
L 696.909314 -75.151889 
L 693.144382 -73.810575 
L 689.962665 -72.469261 
L 687.329145 -71.127947 
L 685.193041 -69.786633 
L 683.494337 -68.445319 
L 682.169409 -67.104004 
L 681.155524 -65.76269 
z
" style="stroke: #484848; stroke-width: 3"/>
    </defs>
    <g clip-path="url(#p1ee64fc3ad)">
     <use xlink:href="#m5550dfe88c" x="0" y="288" style="fill: #59a257; stroke: #484848; stroke-width: 3"/>
    </g>
   </g>
   <g id="PolyCollection_4">
    <defs>
     <path id="mdde7a6ac46" d="M 941.607875 -69.077815 
L 930.589625 -69.077815 
L 928.767453 -70.365152 
L 926.490638 -71.65249 
L 923.697536 -72.939827 
L 920.334617 -74.227164 
L 916.362359 -75.514501 
L 911.761567 -76.801839 
L 906.539575 -78.089176 
L 900.735695 -79.376513 
L 894.425201 -80.663851 
L 887.721168 -81.951188 
L 880.773574 -83.238525 
L 873.765297 -84.525862 
L 866.904919 -85.8132 
L 860.416586 -87.100537 
L 854.527514 -88.387874 
L 849.45406 -89.675211 
L 845.387489 -90.962549 
L 842.4807 -92.249886 
L 840.837114 -93.537223 
L 840.502776 -94.824561 
L 841.462397 -96.111898 
L 843.639687 -97.399235 
L 846.901906 -98.686572 
L 851.068142 -99.97391 
L 855.920499 -101.261247 
L 861.217163 -102.548584 
L 866.7062 -103.835921 
L 872.138991 -105.123259 
L 877.282345 -106.410596 
L 881.928582 -107.697933 
L 885.903117 -108.98527 
L 889.069404 -110.272608 
L 891.331302 -111.559945 
L 892.633154 -112.847282 
L 892.957998 -114.13462 
L 892.324365 -115.421957 
L 890.782154 -116.709294 
L 888.407977 -117.996631 
L 885.30033 -119.283969 
L 881.57478 -120.571306 
L 877.359328 -121.858643 
L 872.789946 -123.14598 
L 868.0063 -124.433318 
L 863.147584 -125.720655 
L 858.348449 -127.007992 
L 853.735014 -128.29533 
L 849.421041 -129.582667 
L 845.50438 -130.870004 
L 842.06391 -132.157341 
L 839.157186 -133.444679 
L 836.819033 -134.732016 
L 835.061287 -136.019353 
L 833.873795 -137.30669 
L 833.226681 -138.594028 
L 833.07375 -139.881365 
L 833.356787 -141.168702 
L 834.010389 -142.45604 
L 834.96692 -143.743377 
L 836.161165 -145.030714 
L 837.534302 -146.318051 
L 839.036911 -147.605389 
L 840.630852 -148.892726 
L 842.289993 -150.180063 
L 843.999903 -151.4674 
L 845.7567 -152.754738 
L 847.565319 -154.042075 
L 849.43749 -155.329412 
L 851.389645 -156.61675 
L 853.440948 -157.904087 
L 855.611546 -159.191424 
L 857.921074 -160.478761 
L 860.387367 -161.766099 
L 863.025345 -163.053436 
L 865.845975 -164.340773 
L 868.855302 -165.62811 
L 872.053526 -166.915448 
L 875.434184 -168.202785 
L 878.983535 -169.490122 
L 882.680228 -170.77746 
L 886.495393 -172.064797 
L 890.393199 -173.352134 
L 894.331938 -174.639471 
L 898.265594 -175.926809 
L 902.145805 -177.214146 
L 905.924085 -178.501483 
L 909.554117 -179.78882 
L 912.993945 -181.076158 
L 916.207854 -182.363495 
L 919.167828 -183.650832 
L 921.854452 -184.93817 
L 924.25724 -186.225507 
L 926.374398 -187.512844 
L 928.212082 -188.800181 
L 929.78327 -190.087519 
L 931.10637 -191.374856 
L 932.203699 -192.662193 
L 933.099967 -193.94953 
L 933.820866 -195.236868 
L 934.39186 -196.524205 
L 937.80564 -196.524205 
L 937.80564 -196.524205 
L 938.376634 -195.236868 
L 939.097533 -193.94953 
L 939.993801 -192.662193 
L 941.09113 -191.374856 
L 942.41423 -190.087519 
L 943.985418 -188.800181 
L 945.823102 -187.512844 
L 947.94026 -186.225507 
L 950.343048 -184.93817 
L 953.029672 -183.650832 
L 955.989646 -182.363495 
L 959.203555 -181.076158 
L 962.643383 -179.78882 
L 966.273415 -178.501483 
L 970.051695 -177.214146 
L 973.931906 -175.926809 
L 977.865562 -174.639471 
L 981.804301 -173.352134 
L 985.702107 -172.064797 
L 989.517272 -170.77746 
L 993.213965 -169.490122 
L 996.763316 -168.202785 
L 1000.143974 -166.915448 
L 1003.342198 -165.62811 
L 1006.351525 -164.340773 
L 1009.172155 -163.053436 
L 1011.810133 -161.766099 
L 1014.276426 -160.478761 
L 1016.585954 -159.191424 
L 1018.756552 -157.904087 
L 1020.807855 -156.61675 
L 1022.76001 -155.329412 
L 1024.632181 -154.042075 
L 1026.4408 -152.754738 
L 1028.197597 -151.4674 
L 1029.907507 -150.180063 
L 1031.566648 -148.892726 
L 1033.160589 -147.605389 
L 1034.663198 -146.318051 
L 1036.036335 -145.030714 
L 1037.23058 -143.743377 
L 1038.187111 -142.45604 
L 1038.840713 -141.168702 
L 1039.12375 -139.881365 
L 1038.970819 -138.594028 
L 1038.323705 -137.30669 
L 1037.136213 -136.019353 
L 1035.378467 -134.732016 
L 1033.040314 -133.444679 
L 1030.13359 -132.157341 
L 1026.69312 -130.870004 
L 1022.776459 -129.582667 
L 1018.462486 -128.29533 
L 1013.849051 -127.007992 
L 1009.049916 -125.720655 
L 1004.1912 -124.433318 
L 999.407554 -123.14598 
L 994.838172 -121.858643 
L 990.62272 -120.571306 
L 986.89717 -119.283969 
L 983.789523 -117.996631 
L 981.415346 -116.709294 
L 979.873135 -115.421957 
L 979.239502 -114.13462 
L 979.564346 -112.847282 
L 980.866198 -111.559945 
L 983.128096 -110.272608 
L 986.294383 -108.98527 
L 990.268918 -107.697933 
L 994.915155 -106.410596 
L 1000.058509 -105.123259 
L 1005.4913 -103.835921 
L 1010.980337 -102.548584 
L 1016.277001 -101.261247 
L 1021.129358 -99.97391 
L 1025.295594 -98.686572 
L 1028.557813 -97.399235 
L 1030.735103 -96.111898 
L 1031.694724 -94.824561 
L 1031.360386 -93.537223 
L 1029.7168 -92.249886 
L 1026.810011 -90.962549 
L 1022.74344 -89.675211 
L 1017.669986 -88.387874 
L 1011.780914 -87.100537 
L 1005.292581 -85.8132 
L 998.432203 -84.525862 
L 991.423926 -83.238525 
L 984.476332 -81.951188 
L 977.772299 -80.663851 
L 971.461805 -79.376513 
L 965.657925 -78.089176 
L 960.435933 -76.801839 
L 955.835141 -75.514501 
L 951.862883 -74.227164 
L 948.499964 -72.939827 
L 945.706862 -71.65249 
L 943.430047 -70.365152 
L 941.607875 -69.077815 
z
" style="stroke: #484848; stroke-width: 3"/>
    </defs>
    <g clip-path="url(#p1ee64fc3ad)">
     <use xlink:href="#mdde7a6ac46" x="0" y="288" style="fill: #905998; stroke: #484848; stroke-width: 3"/>
    </g>
   </g>
   <g id="line2d_9">
    <path d="M 163.41125 210.291632 
L 163.41125 90.285426 
" clip-path="url(#p1ee64fc3ad)" style="fill: none; stroke: #484848; stroke-width: 3"/>
   </g>
   <g id="line2d_10">
    <path d="M 163.41125 183.623586 
L 163.41125 140.288012 
" clip-path="url(#p1ee64fc3ad)" style="fill: none; stroke: #484848; stroke-width: 9"/>
   </g>
   <g id="line2d_11">
    <path d="M 420.97375 213.139879 
L 420.97375 99.144972 
" clip-path="url(#p1ee64fc3ad)" style="fill: none; stroke: #484848; stroke-width: 3"/>
   </g>
   <g id="line2d_12">
    <path d="M 420.97375 175.141577 
L 420.97375 143.476325 
" clip-path="url(#p1ee64fc3ad)" style="fill: none; stroke: #484848; stroke-width: 9"/>
   </g>
   <g id="line2d_13">
    <path d="M 678.53625 201.970847 
L 678.53625 109.713673 
" clip-path="url(#p1ee64fc3ad)" style="fill: none; stroke: #484848; stroke-width: 3"/>
   </g>
   <g id="line2d_14">
    <path d="M 678.53625 192.588761 
L 678.53625 137.859929 
" clip-path="url(#p1ee64fc3ad)" style="fill: none; stroke: #484848; stroke-width: 9"/>
   </g>
   <g id="line2d_15">
    <path d="M 936.09875 198.655722 
L 936.09875 111.742258 
" clip-path="url(#p1ee64fc3ad)" style="fill: none; stroke: #484848; stroke-width: 3"/>
   </g>
   <g id="line2d_16">
    <path d="M 936.09875 191.412933 
L 936.09875 137.092018 
" clip-path="url(#p1ee64fc3ad)" style="fill: none; stroke: #484848; stroke-width: 9"/>
   </g>
   <g id="patch_3">
    <path d="M 34.63 255.69875 
L 34.63 43.92 
" style="fill: none; stroke: #f0f0f0; stroke-width: 3; stroke-linejoin: miter; stroke-linecap: square"/>
   </g>
   <g id="patch_4">
    <path d="M 1064.88 255.69875 
L 1064.88 43.92 
" style="fill: none; stroke: #f0f0f0; stroke-width: 3; stroke-linejoin: miter; stroke-linecap: square"/>
   </g>
   <g id="patch_5">
    <path d="M 34.63 255.69875 
L 1064.88 255.69875 
" style="fill: none; stroke: #f0f0f0; stroke-width: 3; stroke-linejoin: miter; stroke-linecap: square"/>
   </g>
   <g id="patch_6">
    <path d="M 34.63 43.92 
L 1064.88 43.92 
" style="fill: none; stroke: #f0f0f0; stroke-width: 3; stroke-linejoin: miter; stroke-linecap: square"/>
   </g>
   <g id="PathCollection_1">
    <defs>
     <path id="mf06b135bf6" d="M 0 3 
C 0.795609 3 1.55874 2.683901 2.12132 2.12132 
C 2.683901 1.55874 3 0.795609 3 0 
C 3 -0.795609 2.683901 -1.55874 2.12132 -2.12132 
C 1.55874 -2.683901 0.795609 -3 0 -3 
C -0.795609 -3 -1.55874 -2.683901 -2.12132 -2.12132 
C -2.683901 -1.55874 -3 -0.795609 -3 0 
C -3 0.795609 -2.683901 1.55874 -2.12132 2.12132 
C -1.55874 2.683901 -0.795609 3 0 3 
z
" style="stroke: #484848; stroke-width: 0.5"/>
    </defs>
    <g clip-path="url(#p1ee64fc3ad)">
     <use xlink:href="#mf06b135bf6" x="163.41125" y="160.289046" style="fill: #ffffff; stroke: #484848; stroke-width: 0.5"/>
    </g>
   </g>
   <g id="PathCollection_2">
    <g clip-path="url(#p1ee64fc3ad)">
     <use xlink:href="#mf06b135bf6" x="420.97375" y="162.475476" style="fill: #ffffff; stroke: #484848; stroke-width: 0.5"/>
    </g>
   </g>
   <g id="PathCollection_3">
    <g clip-path="url(#p1ee64fc3ad)">
     <use xlink:href="#mf06b135bf6" x="678.53625" y="149.587536" style="fill: #ffffff; stroke: #484848; stroke-width: 0.5"/>
    </g>
   </g>
   <g id="PathCollection_4">
    <g clip-path="url(#p1ee64fc3ad)">
     <use xlink:href="#mf06b135bf6" x="936.09875" y="155.19899" style="fill: #ffffff; stroke: #484848; stroke-width: 0.5"/>
    </g>
   </g>
  </g>
  <g id="text_13">
   <!-- Violin Plot of all Continuous Variables -->
   <g style="fill: #262626" transform="translate(416.035547 16.496719) scale(0.15 -0.15)">
    <defs>
     <path id="ArialMT-56" d="M 1803 0 
L 28 4581 
L 684 4581 
L 1875 1253 
Q 2019 853 2116 503 
Q 2222 878 2363 1253 
L 3600 4581 
L 4219 4581 
L 2425 0 
L 1803 0 
z
" transform="scale(0.015625)"/>
     <path id="ArialMT-6f" d="M 213 1659 
Q 213 2581 725 3025 
Q 1153 3394 1769 3394 
Q 2453 3394 2887 2945 
Q 3322 2497 3322 1706 
Q 3322 1066 3130 698 
Q 2938 331 2570 128 
Q 2203 -75 1769 -75 
Q 1072 -75 642 372 
Q 213 819 213 1659 
z
M 791 1659 
Q 791 1022 1069 705 
Q 1347 388 1769 388 
Q 2188 388 2466 706 
Q 2744 1025 2744 1678 
Q 2744 2294 2464 2611 
Q 2184 2928 1769 2928 
Q 1347 2928 1069 2612 
Q 791 2297 791 1659 
z
" transform="scale(0.015625)"/>
     <path id="ArialMT-20" transform="scale(0.015625)"/>
     <path id="ArialMT-50" d="M 494 0 
L 494 4581 
L 2222 4581 
Q 2678 4581 2919 4538 
Q 3256 4481 3484 4323 
Q 3713 4166 3852 3881 
Q 3991 3597 3991 3256 
Q 3991 2672 3619 2267 
Q 3247 1863 2275 1863 
L 1100 1863 
L 1100 0 
L 494 0 
z
M 1100 2403 
L 2284 2403 
Q 2872 2403 3119 2622 
Q 3366 2841 3366 3238 
Q 3366 3525 3220 3729 
Q 3075 3934 2838 4000 
Q 2684 4041 2272 4041 
L 1100 4041 
L 1100 2403 
z
" transform="scale(0.015625)"/>
     <path id="ArialMT-66" d="M 556 0 
L 556 2881 
L 59 2881 
L 59 3319 
L 556 3319 
L 556 3672 
Q 556 4006 616 4169 
Q 697 4388 901 4523 
Q 1106 4659 1475 4659 
Q 1713 4659 2000 4603 
L 1916 4113 
Q 1741 4144 1584 4144 
Q 1328 4144 1222 4034 
Q 1116 3925 1116 3625 
L 1116 3319 
L 1763 3319 
L 1763 2881 
L 1116 2881 
L 1116 0 
L 556 0 
z
" transform="scale(0.015625)"/>
     <path id="ArialMT-43" d="M 3763 1606 
L 4369 1453 
Q 4178 706 3683 314 
Q 3188 -78 2472 -78 
Q 1731 -78 1267 223 
Q 803 525 561 1097 
Q 319 1669 319 2325 
Q 319 3041 592 3573 
Q 866 4106 1370 4382 
Q 1875 4659 2481 4659 
Q 3169 4659 3637 4309 
Q 4106 3959 4291 3325 
L 3694 3184 
Q 3534 3684 3231 3912 
Q 2928 4141 2469 4141 
Q 1941 4141 1586 3887 
Q 1231 3634 1087 3207 
Q 944 2781 944 2328 
Q 944 1744 1114 1308 
Q 1284 872 1643 656 
Q 2003 441 2422 441 
Q 2931 441 3284 734 
Q 3638 1028 3763 1606 
z
" transform="scale(0.015625)"/>
     <path id="ArialMT-75" d="M 2597 0 
L 2597 488 
Q 2209 -75 1544 -75 
Q 1250 -75 995 37 
Q 741 150 617 320 
Q 494 491 444 738 
Q 409 903 409 1263 
L 409 3319 
L 972 3319 
L 972 1478 
Q 972 1038 1006 884 
Q 1059 663 1231 536 
Q 1403 409 1656 409 
Q 1909 409 2131 539 
Q 2353 669 2445 892 
Q 2538 1116 2538 1541 
L 2538 3319 
L 3100 3319 
L 3100 0 
L 2597 0 
z
" transform="scale(0.015625)"/>
     <path id="ArialMT-72" d="M 416 0 
L 416 3319 
L 922 3319 
L 922 2816 
Q 1116 3169 1280 3281 
Q 1444 3394 1641 3394 
Q 1925 3394 2219 3213 
L 2025 2691 
Q 1819 2813 1613 2813 
Q 1428 2813 1281 2702 
Q 1134 2591 1072 2394 
Q 978 2094 978 1738 
L 978 0 
L 416 0 
z
" transform="scale(0.015625)"/>
     <path id="ArialMT-62" d="M 941 0 
L 419 0 
L 419 4581 
L 981 4581 
L 981 2947 
Q 1338 3394 1891 3394 
Q 2197 3394 2470 3270 
Q 2744 3147 2920 2923 
Q 3097 2700 3197 2384 
Q 3297 2069 3297 1709 
Q 3297 856 2875 390 
Q 2453 -75 1863 -75 
Q 1275 -75 941 416 
L 941 0 
z
M 934 1684 
Q 934 1088 1097 822 
Q 1363 388 1816 388 
Q 2184 388 2453 708 
Q 2722 1028 2722 1663 
Q 2722 2313 2464 2622 
Q 2206 2931 1841 2931 
Q 1472 2931 1203 2611 
Q 934 2291 934 1684 
z
" transform="scale(0.015625)"/>
    </defs>
    <use xlink:href="#ArialMT-56"/>
    <use xlink:href="#ArialMT-69" x="64.949219"/>
    <use xlink:href="#ArialMT-6f" x="87.166016"/>
    <use xlink:href="#ArialMT-6c" x="142.78125"/>
    <use xlink:href="#ArialMT-69" x="164.998047"/>
    <use xlink:href="#ArialMT-6e" x="187.214844"/>
    <use xlink:href="#ArialMT-20" x="242.830078"/>
    <use xlink:href="#ArialMT-50" x="270.613281"/>
    <use xlink:href="#ArialMT-6c" x="337.3125"/>
    <use xlink:href="#ArialMT-6f" x="359.529297"/>
    <use xlink:href="#ArialMT-74" x="415.144531"/>
    <use xlink:href="#ArialMT-20" x="442.927734"/>
    <use xlink:href="#ArialMT-6f" x="470.710938"/>
    <use xlink:href="#ArialMT-66" x="526.326172"/>
    <use xlink:href="#ArialMT-20" x="554.109375"/>
    <use xlink:href="#ArialMT-61" x="581.892578"/>
    <use xlink:href="#ArialMT-6c" x="637.507812"/>
    <use xlink:href="#ArialMT-6c" x="659.724609"/>
    <use xlink:href="#ArialMT-20" x="681.941406"/>
    <use xlink:href="#ArialMT-43" x="709.724609"/>
    <use xlink:href="#ArialMT-6f" x="781.941406"/>
    <use xlink:href="#ArialMT-6e" x="837.556641"/>
    <use xlink:href="#ArialMT-74" x="893.171875"/>
    <use xlink:href="#ArialMT-69" x="920.955078"/>
    <use xlink:href="#ArialMT-6e" x="943.171875"/>
    <use xlink:href="#ArialMT-75" x="998.787109"/>
    <use xlink:href="#ArialMT-6f" x="1054.402344"/>
    <use xlink:href="#ArialMT-75" x="1110.017578"/>
    <use xlink:href="#ArialMT-73" x="1165.632812"/>
    <use xlink:href="#ArialMT-20" x="1215.632812"/>
    <use xlink:href="#ArialMT-56" x="1243.416016"/>
    <use xlink:href="#ArialMT-61" x="1302.740234"/>
    <use xlink:href="#ArialMT-72" x="1358.355469"/>
    <use xlink:href="#ArialMT-69" x="1391.65625"/>
    <use xlink:href="#ArialMT-61" x="1413.873047"/>
    <use xlink:href="#ArialMT-62" x="1469.488281"/>
    <use xlink:href="#ArialMT-6c" x="1525.103516"/>
    <use xlink:href="#ArialMT-65" x="1547.320312"/>
    <use xlink:href="#ArialMT-73" x="1602.935547"/>
   </g>
  </g>
 </g>
 <defs>
  <clipPath id="p1ee64fc3ad">
   <rect x="34.63" y="43.92" width="1030.25" height="211.77875"/>
  </clipPath>
 </defs>
</svg>
